<?xml version="1.0" encoding="utf-8"?>
<!-- Generator: Adobe Illustrator 26.0.2, SVG Export Plug-In . SVG Version: 6.00 Build 0)  -->
<svg version="1.1" id="Laag_1" xmlns="http://www.w3.org/2000/svg" xmlns:xlink="http://www.w3.org/1999/xlink" x="0px" y="0px"
	 viewBox="0 0 2150 569" style="enable-background:new 0 0 2150 569;" xml:space="preserve">
<style type="text/css">
	.st0{fill:#F3D03E;}
	.st1{fill:#003057;}
</style>
<path class="st0" d="M510.2,568H56.7C25.4,568,0,542.6,0,511.3V57.7C0,26.4,25.4,1,56.7,1l0,0h453.5c31.3,0,56.7,25.4,56.7,56.7
	v453.5C566.9,542.6,541.5,568,510.2,568L510.2,568z"/>
<path class="st1" d="M240.8,286.5c21.3,18,84.1,44.2,100,54.6c16.9,11,29.4,24.5,29.4,41.5c0,28.2-31.8,51.1-71.4,51.7l0,0H297
	c-38.4,0-70.2-22.2-75-51.2c-0.7-3.9-1.1-7.8-1.3-11.8c0-14.7,5.5-28.9,15.4-39.8h0.1c-3.4-0.7-7-1.1-10.5-1.1
	c-23.8,0-43,16.2-43,36.3c0.2,47.3,51.3,86.1,112,86.1c61.9,0,112.1-39.8,112.1-88.8v-1.6c-2.2-55.1-74.7-97.7-120.7-99.5l-2.3-0.1
	c-25.3,0.8-43.4-1.1-68.2-6.6C223.6,270.3,235.2,281.5,240.8,286.5L240.8,286.5z"/>
<path class="st1" d="M184.8,248.9c-2.2-0.5-4.5-0.8-6.8-0.8c-27.1-0.1-52.6,13-68.4,35l0,0c-12.5,18-19.1,39.3-19.1,61.2v-0.4
	c0,83.6,87.5,151.4,195.5,151.4l0.3-0.1c156.2-6,188.5-158.3,189.8-182c1.6-29.1-5.6-65.2-39.9-72.7c0,0-44.5-15.1-65.5,34.9
	c0,0,118.3-24.3,61.9,107.8c-24.9,56.1-80.6,92.1-142,91.9c-82.5,0-149.4-59.8-149.4-133.5C141.3,305.5,158.9,272.9,184.8,248.9
	L184.8,248.9z"/>
<path class="st1" d="M319.4,222.3c3.6,2.7,5.7,6.9,5.7,11.3c0,6.7-4.7,12.5-11.2,14l0,0c-12,2.3-24.3,3.5-36.6,3.5
	c-72.3,0-131-39.7-131-88.7s58.6-88.7,131-88.7c55.2,0,102.4,23.1,121.7,55.9v-0.1c4.1,7.2,6.3,15.3,6.3,23.6
	c0,5.3-0.9,10.5-2.6,15.5c-4.3,11.5-17.1,17.3-28.6,13c-3.4-1.3-6.4-3.4-8.8-6.1l0,0c5.5-7.7,8.6-16.9,8.7-26.4
	c0-34.5-41.3-62.5-92.3-62.5c-9.8,0-19.6,1.1-29.2,3.2l0,0c-35.1,8-61.1,37.4-61.1,72.4c0,41.2,36,74.5,80.4,74.5
	C288.8,236.8,305.4,231.8,319.4,222.3L319.4,222.3z"/>
<path class="st1" d="M331.1,214.7c0-21.3-18.7-38.6-41.7-38.6s-41.7,17.3-41.7,38.6c0,1.5,0.1,3,0.2,4.5
	c-15.2-5.2-25.5-13.2-27-22.3c12.7-19.9,36-33.2,62.7-33.2h1.3h4c37.7,0,68.2,13.8,68.2,30.9c0,9.9-10.3,18.7-26.3,24.4
	C330.8,219,331.1,216.2,331.1,214.7L331.1,214.7z"/>
<path class="st1" d="M305.9,158.5c0.2-7.4,0.5-14.7,0.8-22c16.2,1.2,32.2,4.4,47.6,9.6v-22.9H226.7V146c15-5,30.6-8.2,46.4-9.4
	c0.3,7.3,0.5,14.6,0.8,22C284.5,157.2,295.2,157.2,305.9,158.5L305.9,158.5z"/>
<path class="st1" d="M303.8,279.6c0,4.4,0,8.8,0,13.2c0,11.3,0.1,22.6,0.3,33.7l1.2,56.6c0.2,6.3,0.4,12.6,0.6,18.9h-32.1
	c0.2-6.2,0.4-12.5,0.6-18.9l1.2-56.7c0.1-11.1,0.2-22.3,0.3-33.6c0-4.4,0-8.8,0-13.2H303.8z"/>
<path class="st1" d="M290,182.6c-5.3,0-10.6,1.2-15.4,3.6c0.3,13.2,0.6,26.5,0.8,40c4.3,0.4,8.6,0.7,12.9,0.7c5.3,0,10.6-0.3,15.9-1
	c0.2-13.4,0.5-26.7,0.8-39.8C300.4,183.8,295.2,182.7,290,182.6L290,182.6z"/>
<path class="st1" d="M853,339.4c0,7-1.2,8.2-7.8,8.2H716.9c-6.6,0-8.2-1.2-8.2-8.2V88.6c0-7,1.6-8.2,8.2-8.2h127.9
	c7.8,0,9.8,0.8,9.8,4.3c0,2-0.4,2.7-1.2,5.5l-7.4,26.1c-1.6,5.8-5.8,6.2-9,6.2h-75.7v64.3h66.3c7,0,8.2,1.2,8.2,8.2v25.7
	c0,7-1.6,8.2-8.2,8.2h-66.3v76.4h83.5c7,0,8.2,1.2,8.2,8.2L853,339.4z"/>
<path class="st1" d="M1079.4,129.2c-1.2,2.3-2.7,3.9-4.3,3.9c-2.3,0-26.5-17.2-54.6-17.2c-17.9,0-36.7,7-36.7,30.4
	c0,29.6,45.6,35.1,80,60.5c19.9,14.8,33.5,35.5,33.5,65.1c0,49.5-35.1,82.3-84.2,82.3c-39.8,0-81.5-17.2-81.5-23.8
	c0-1.2,0.4-2.7,2-5.8l9-25.7c1.2-2.3,2.7-3.9,4.3-3.9c2.3,0,31.2,17.2,64.7,17.2c21.8,0,35.1-11.7,35.1-35.9
	c0-34.7-39.8-38.2-79.6-62.4c-20.7-12.5-33.9-28.1-33.9-60.5c0-56.2,40.6-79.6,85.8-79.6c37,0,75.3,17.2,75.3,23.8
	c0,1.2-0.4,2.7-2,5.8L1079.4,129.2z"/>
<path class="st1" d="M1238.5,339.4c0,7-1.6,8.2-8.2,8.2h-36.2c-6.6,0-8.2-1.2-8.2-8.2V88.6c0-7,1.6-8.2,8.2-8.2h36.3
	c6.6,0,8.2,1.2,8.2,8.2v109.2h0.8l85.8-119c1.2-2,4.3-5.1,6.6-5.1c1.9,0,3.9,1.6,7,3.1l26.5,13.3c2.3,1.2,5.1,3.5,5.1,4.7
	c0,3.9-1.6,4.7-2.7,6.2l-83.1,109.6l91.7,113.9c1.2,1.6,2.7,2.3,2.7,6.2c0,1.2-2.7,3.5-5.1,4.7l-31.2,15.6c-3.1,1.6-5.1,3.1-7,3.1
	c-2.3,0-5.5-3.1-6.6-5.1l-89.7-119.3h-0.8L1238.5,339.4z"/>
<path class="st1" d="M1602.2,339.4c0,7-1.2,8.2-7.8,8.2h-128.3c-6.6,0-8.2-1.2-8.2-8.2V88.6c0-7,1.6-8.2,8.2-8.2H1594
	c7.8,0,9.8,0.8,9.8,4.3c0,2-0.4,2.7-1.2,5.5l-7.4,26.1c-1.6,5.8-5.9,6.2-9,6.2h-75.7v64.3h66.3c7,0,8.2,1.2,8.2,8.2v25.7
	c0,7-1.6,8.2-8.2,8.2h-66.3v76.4h83.5c7,0,8.2,1.2,8.2,8.2L1602.2,339.4z"/>
<path class="st1" d="M1872.1,339.4c0,7-1.2,8.2-8.2,8.2h-25.7c-5.5,0-6.6-0.8-9-5.5l-71.4-133c-12.1-21.5-18.3-35.5-22.2-53h-0.8
	c0,5.1,1.2,25,1.2,42.9v140.4c0,7-1.6,8.2-8.2,8.2h-28.5c-6.6,0-8.2-1.2-8.2-8.2V88.6c0-7,1.6-8.2,8.2-8.2h32c5.9,0,6.6,0.8,9,5.1
	l64.4,120.9c9.5,18,17.2,37,23,56.5h0.8c0-12.5-1.2-39.8-1.2-50.7V88.6c0-7,1.6-8.2,8.2-8.2h28.5c6.6,0,8.2,1.2,8.2,8.2
	L1872.1,339.4z"/>
<path class="st1" d="M2108.1,129.2c-1.2,2.3-2.7,3.9-4.3,3.9c-2.3,0-26.5-17.2-54.6-17.2c-17.9,0-36.7,7-36.7,30.4
	c0,29.6,45.6,35.1,79.9,60.5c19.9,14.8,33.5,35.5,33.5,65.1c0,49.5-35.1,82.3-84.2,82.3c-39.8,0-81.5-17.2-81.5-23.8
	c0-1.2,0.4-2.7,2-5.8l9-25.7c1.2-2.3,2.7-3.9,4.3-3.9c2.3,0,31.2,17.2,64.7,17.2c21.8,0,35.1-11.7,35.1-35.9
	c0-34.7-39.8-38.2-79.6-62.4c-20.7-12.5-33.9-28.1-33.9-60.5c0-56.2,40.6-79.6,85.8-79.6c37.1,0,75.3,17.2,75.3,23.8
	c0,1.2-0.4,2.7-1.9,5.8L2108.1,129.2z"/>
<path class="st1" d="M746.9,508c0,2.4-0.6,2.8-2.8,2.8h-12.6c-2.3,0-2.8-0.4-2.8-2.8v-73.4H711c-1.9,0-2.3-0.4-2.3-2.3v-11.6
	c0-1.9,0.4-2.3,2.3-2.3h55.6c2.7,0,3.4,0.3,3.4,1.5c0,0.6-0.2,1.3-0.4,1.9l-2.8,10.7c-0.5,2.2-2,2.2-3.1,2.2h-16.7V508z"/>
<path class="st1" d="M818.8,508c0,2.4-0.6,2.8-2.8,2.8H783c-2.3,0-2.8-0.4-2.8-2.8v-7.3c0-2.4,0.5-2.8,2.8-2.8h7.4v-66.5H783
	c-2.3,0-2.8-0.4-2.8-2.8v-7.3c0-2.4,0.5-2.8,2.8-2.8H816c2.3,0,2.8,0.4,2.8,2.8v7.3c0,2.4-0.6,2.8-2.8,2.8h-7.4v66.5h7.4
	c2.3,0,2.8,0.4,2.8,2.8V508z"/>
<path class="st1" d="M899,508c0,2.4-0.4,2.8-2.8,2.8h-8.9c-1.9,0-2.3-0.3-3.1-1.9l-24.7-46c-4.2-7.4-6.3-12.3-7.7-18.4h-0.3
	c0,1.8,0.4,8.6,0.4,14.8V508c0,2.4-0.6,2.8-2.8,2.8h-9.9c-2.3,0-2.8-0.4-2.8-2.8v-86.8c0-2.4,0.5-2.8,2.8-2.8h11.1
	c2,0,2.3,0.3,3.1,1.8l22.3,41.8c3.3,6.2,6,12.8,8,19.6h0.3c0-4.3-0.4-13.8-0.4-17.5v-42.8c0-2.4,0.6-2.8,2.8-2.8h9.9
	c2.3,0,2.8,0.4,2.8,2.8L899,508z"/>
<path class="st1" d="M951.3,508c0,2.4-0.5,2.8-2.8,2.8H936c-2.3,0-2.8-0.4-2.8-2.8v-73.4h-17.7c-1.9,0-2.3-0.4-2.3-2.3v-11.6
	c0-1.9,0.4-2.3,2.3-2.3h55.6c2.7,0,3.4,0.3,3.4,1.5c0,0.6-0.2,1.3-0.4,1.9l-2.8,10.7c-0.5,2.2-2,2.2-3.1,2.2h-16.7L951.3,508z"/>
<path class="st1" d="M1023.3,508c0,2.4-0.6,2.8-2.8,2.8h-33.1c-2.3,0-2.8-0.4-2.8-2.8v-7.3c0-2.4,0.5-2.8,2.8-2.8h7.4v-66.5h-7.4
	c-2.3,0-2.8-0.4-2.8-2.8v-7.3c0-2.4,0.5-2.8,2.8-2.8h33.1c2.3,0,2.8,0.4,2.8,2.8v7.3c0,2.4-0.6,2.8-2.8,2.8h-7.4v66.5h7.4
	c2.3,0,2.8,0.4,2.8,2.8L1023.3,508z"/>
<path class="st1" d="M1103.4,508c0,2.4-0.4,2.8-2.8,2.8h-8.9c-1.9,0-2.3-0.3-3.1-1.9l-24.7-46c-4.2-7.4-6.3-12.3-7.7-18.4h-0.3
	c0,1.8,0.4,8.6,0.4,14.8V508c0,2.4-0.6,2.8-2.8,2.8h-9.9c-2.3,0-2.8-0.4-2.8-2.8v-86.8c0-2.4,0.5-2.8,2.8-2.8h11.1
	c2,0,2.3,0.3,3.1,1.8l22.3,41.8c3.3,6.2,6,12.8,8,19.6h0.3c0-4.3-0.4-13.8-0.4-17.5v-42.8c0-2.4,0.5-2.8,2.8-2.8h9.9
	c2.3,0,2.8,0.4,2.8,2.8L1103.4,508z"/>
<path class="st1" d="M1185.5,502.6c0,5.7-15.9,10.5-27,10.5c-23.7,0-36.2-15.4-36.2-48c0-32,12.3-49,36.4-49
	c12.1,0,25.1,5.9,25.1,8.2c-0.1,0.7-0.3,1.4-0.7,2l-4.4,8.9c-0.4,0.8-1,1.3-1.5,1.3c-0.8,0-8.4-5.9-17.5-5.9
	c-13.8,0-18.2,12.8-18.2,33.5c0,21,3.5,34.4,18.1,34.4c3.4,0,6.7-0.7,9.7-2.2v-19.6h-10.1c-2.3,0-2.8-0.4-2.8-2.8v-8.9
	c0-2.4,0.6-2.8,2.8-2.8h23.5c2.3,0,2.8,0.4,2.8,2.8L1185.5,502.6z"/>
<path class="st1" d="M1304.7,435.3c-0.4,0.8-0.9,1.3-1.5,1.3c-0.8,0-9.2-5.9-18.9-5.9c-6.2,0-12.7,2.4-12.7,10.5
	c0,10.2,15.8,12.2,27.7,20.9c6.9,5.1,11.6,12.3,11.6,22.5c0,17.1-12.1,28.5-29.1,28.5c-13.8,0-28.2-5.9-28.2-8.2
	c0.1-0.7,0.3-1.4,0.7-2l3.1-8.9c0.4-0.8,1-1.3,1.5-1.3c0.8,0,10.8,5.9,22.4,5.9c7.6,0,12.2-4,12.2-12.4c0-12-13.8-13.2-27.5-21.6
	c-7.2-4.3-11.7-9.7-11.7-20.9c0-19.4,14-27.5,29.7-27.5c12.8,0,26,5.9,26,8.2c-0.1,0.7-0.3,1.4-0.7,2L1304.7,435.3z"/>
<path class="st1" d="M1357.6,513.2c-20.9,0-33.6-15.8-33.6-48.4s12.8-48.6,33.6-48.6c20.8,0,33.6,15.9,33.6,48.6
	C1391.2,497.4,1378.6,513.2,1357.6,513.2z M1372.1,464.7c0-21.2-4.3-34.4-14.4-34.4c-10.1,0-14.4,13.4-14.4,34.4
	c0,21,4.3,34.3,14.4,34.3C1367.7,499,1372.1,485.8,1372.1,464.7z"/>
<path class="st1" d="M1460.6,508.4c-0.6,2.2-1,2.4-3,2.4h-44.5c-2.3,0-2.8-0.4-2.8-2.8v-86.8c0-2.4,0.6-2.8,2.8-2.8h12.6
	c2.3,0,2.8,0.4,2.8,2.8v73.4h32.6c1.9,0,2.4,0.7,2.4,1.8c0,0.6-0.1,1.2-0.3,1.8L1460.6,508.4z"/>
<path class="st1" d="M1542.6,479.5c0,20.1-7,33.6-32.5,33.6s-32.5-13.5-32.5-33.6v-58.3c0-2.4,0.6-2.8,2.8-2.8h12.6
	c2.3,0,2.8,0.4,2.8,2.8v58.3c0,9.7,0.7,19,14.3,19s14.3-9.3,14.3-19v-58.3c0-2.4,0.5-2.8,2.8-2.8h12.6c2.3,0,2.8,0.4,2.8,2.8
	L1542.6,479.5z"/>
<path class="st1" d="M1594.4,508c0,2.4-0.6,2.8-2.8,2.8H1579c-2.3,0-2.8-0.4-2.8-2.8v-73.4h-17.7c-1.9,0-2.3-0.4-2.3-2.3v-11.6
	c0-1.9,0.4-2.3,2.3-2.3h55.6c2.7,0,3.4,0.3,3.4,1.5c0,0.6-0.2,1.3-0.4,1.9l-2.8,10.7c-0.5,2.2-2,2.2-3.1,2.2h-16.7V508z"/>
<path class="st1" d="M1666.4,508c0,2.4-0.6,2.8-2.8,2.8h-33.1c-2.3,0-2.8-0.4-2.8-2.8v-7.3c0-2.4,0.5-2.8,2.8-2.8h7.4v-66.5h-7.4
	c-2.3,0-2.8-0.4-2.8-2.8v-7.3c0-2.4,0.5-2.8,2.8-2.8h33.1c2.3,0,2.8,0.4,2.8,2.8v7.3c0,2.4-0.6,2.8-2.8,2.8h-7.4v66.5h7.4
	c2.3,0,2.8,0.4,2.8,2.8L1666.4,508z"/>
<path class="st1" d="M1711.9,513.2c-20.9,0-33.6-15.8-33.6-48.4s12.8-48.6,33.6-48.6s33.6,15.9,33.6,48.6
	C1745.5,497.4,1732.8,513.2,1711.9,513.2z M1726.4,464.7c0-21.2-4.3-34.4-14.5-34.4s-14.4,13.4-14.4,34.4c0,21.1,4.3,34.3,14.4,34.3
	S1726.4,485.8,1726.4,464.7L1726.4,464.7z"/>
<path class="st1" d="M1827,508c0,2.4-0.4,2.8-2.8,2.8h-8.9c-1.9,0-2.3-0.3-3.1-1.9l-24.7-46c-4.2-7.4-6.3-12.3-7.7-18.4h-0.3
	c0,1.8,0.4,8.6,0.4,14.8V508c0,2.4-0.6,2.8-2.8,2.8h-9.9c-2.3,0-2.8-0.4-2.8-2.8v-86.8c0-2.4,0.5-2.8,2.8-2.8h11.1
	c2,0,2.3,0.3,3.1,1.8l22.3,41.8c3.3,6.2,6,12.8,8,19.6h0.3c0-4.3-0.4-13.8-0.4-17.5v-42.8c0-2.4,0.6-2.8,2.8-2.8h9.9
	c2.3,0,2.8,0.4,2.8,2.8L1827,508z"/>
<path class="st1" d="M1894.7,435.3c-0.4,0.8-0.9,1.3-1.5,1.3c-0.8,0-9.2-5.9-18.9-5.9c-6.2,0-12.7,2.4-12.7,10.5
	c0,10.2,15.8,12.2,27.7,20.9c6.9,5.1,11.6,12.3,11.6,22.5c0,17.1-12.1,28.5-29.1,28.5c-13.8,0-28.2-5.9-28.2-8.2
	c0.1-0.7,0.3-1.4,0.7-2l3.1-8.9c0.4-0.8,1-1.3,1.5-1.3c0.8,0,10.8,5.9,22.4,5.9c7.6,0,12.1-4,12.1-12.4c0-12-13.8-13.2-27.5-21.6
	c-7.2-4.3-11.7-9.7-11.7-20.9c0-19.4,14-27.5,29.7-27.5c12.8,0,26,5.9,26,8.2c-0.1,0.7-0.3,1.4-0.7,2L1894.7,435.3z"/>
<path class="st1" d="M2037.1,479.5c0,20.1-7,33.6-32.5,33.6s-32.5-13.5-32.5-33.6v-58.3c0-2.4,0.6-2.8,2.8-2.8h12.6
	c2.3,0,2.8,0.4,2.8,2.8v58.3c0,9.7,0.7,19,14.3,19s14.3-9.3,14.3-19v-58.3c0-2.4,0.5-2.8,2.8-2.8h12.6c2.3,0,2.8,0.4,2.8,2.8
	L2037.1,479.5z"/>
<path class="st1" d="M2077.4,508c0,2.4-0.5,2.8-2.8,2.8h-12.5c-2.3,0-2.8-0.4-2.8-2.8v-86.8c0-2.4,0.5-2.8,2.8-2.8h12.5
	c2.3,0,2.8,0.4,2.8,2.8V459h0.3l29.7-41.2c0.4-0.7,1.5-1.8,2.3-1.8s1.4,0.5,2.4,1.1l9.2,4.6c0.8,0.4,1.8,1.2,1.8,1.6
	c0,0.8-0.3,1.6-0.9,2.2l-28.7,37.9l31.7,39.4c0.6,0.5,1,1.3,0.9,2.2c0,0.4-0.9,1.2-1.7,1.6l-10.8,5.4c-1.1,0.5-1.8,1.1-2.4,1.1
	s-1.9-1.1-2.3-1.8l-31-41.3h-0.3L2077.4,508z"/>
</svg>
